# xmcd CD database file generated by Grip 2.94
# 
# Track frame offsets:
#       150
#       12552
#       24707
#       36737
#       48550
#       61897
#       74505
#       88397
#       101912
#       115675
#       129197
#       143845
#       157225
#       171202
#       184652
#       199755
#       214452
#       228272
#       241560
#       254637
# 
# Disc length: 3570 seconds
# 
# Revision: 3
# Processed by: cddbd v1.4b41PL1 Copyright (c) Steve Scherf et al.
# Submitted via: Grip 2.94
# 
DISCID=300df014
DTITLE=Lonnie Johnson - Blues in My Soul
DYEAR=1900
DGENRE=
TTITLE0=Flood Water
TTITLE1=Something Fishy
TTITLE2=Swing Out Rhythm
TTITLE3=New Falling Rain Blues
TTITLE4=Devil's Got the Blues
TTITLE5=Mr. Johnson Swing
TTITLE6=What More Can A Man Do?
TTITLE7=Hot Spring Blues (Skin and Bones)
TTITLE8=Four-o-three Blues
TTITLE9=She's My Mary
TTITLE10=The Loveless Blues
TTITLE11=Don't Be No Fool
TTITLE12=She Ain't Right
TTITLE13=That's Love
TTITLE14=Flyright Baby
TTITLE15=My Love is Down
TTITLE16=Rocks in My Bed
TTITLE17=Blues in My Soul
TTITLE18=Solid Blues
TTITLE19=My Last Love
EXTD=
EXTT0=
EXTT1=
EXTT2=
EXTT3=
EXTT4=
EXTT5=
EXTT6=
EXTT7=
EXTT8=
EXTT9=
EXTT10=
EXTT11=
EXTT12=
EXTT13=
EXTT14=
EXTT15=
EXTT16=
EXTT17=
EXTT18=
EXTT19=
PLAYORDER=
